<?xml version="1.0" standalone="no"?>
<!DOCTYPE svg PUBLIC "-//W3C//DTD SVG 20010904//EN"
 "http://www.w3.org/TR/2001/REC-SVG-20010904/DTD/svg10.dtd">
<svg version="1.0" xmlns="http://www.w3.org/2000/svg"
 width="512.000000pt" height="512.000000pt" viewBox="0 0 512.000000 512.000000"
 preserveAspectRatio="xMidYMid meet">

<g transform="translate(0.000000,512.000000) scale(0.100000,-0.100000)"
fill="#0E546E" stroke="none">
<path d="M2160 4985 c-278 -49 -481 -116 -719 -237 -213 -109 -451 -288 -650
-488 l-115 -115 258 -3 257 -2 72 58 c192 155 458 297 697 371 154 48 169 51
394 82 94 13 441 7 536 -10 266 -48 575 -151 568 -190 -3 -14 -59 -16 -551
-19 l-547 -2 0 -558 c0 -306 -4 -583 -10 -614 -19 -122 -111 -258 -220 -328
-27 -17 -80 -43 -117 -56 -67 -23 -73 -24 -445 -24 l-378 0 0 390 0 391 368
-3 367 -3 67 -28 c77 -33 149 -92 190 -157 l28 -45 -2 235 -3 234 -47 23 c-26
13 -82 33 -125 45 -76 21 -97 22 -719 25 -637 4 -641 4 -699 -18 -42 -16 -75
-39 -125 -88 -57 -56 -76 -85 -133 -201 -127 -259 -195 -526 -216 -847 -22
-313 20 -646 111 -903 108 -304 229 -484 378 -561 l65 -34 705 0 705 0 83 28
c179 62 306 154 404 292 88 124 129 248 135 412 6 130 -7 198 -59 318 -52 119
-167 246 -279 308 -32 17 -59 34 -59 37 0 3 12 12 28 21 15 9 51 34 79 54 51
36 53 37 77 21 34 -22 156 -143 189 -186 l27 -35 0 428 0 427 350 0 350 0 0
155 0 156 -277 -1 c-153 -1 -311 -1 -350 -1 l-73 1 0 175 0 175 351 0 c402 0
464 6 562 58 218 113 257 361 84 533 -98 97 -319 194 -597 262 -208 50 -299
60 -575 63 -237 3 -272 1 -395 -21z m-1332 -2342 c-2 -769 -6 -987 -15 -990
-23 -8 -60 42 -129 177 -192 377 -237 887 -120 1340 36 139 63 213 124 338 42
87 74 122 113 122 l29 0 -2 -987z m1191 -168 c238 -50 377 -245 340 -477 -11
-70 -49 -159 -87 -203 -37 -43 -110 -94 -171 -119 l-64 -26 -424 0 -423 0 0
420 0 420 379 0 c298 0 395 -3 450 -15z"/>
<path d="M4043 4369 c-22 -11 -54 -39 -70 -61 -24 -36 -28 -51 -28 -112 0 -58
4 -77 23 -103 27 -38 27 -51 2 -105 -10 -24 -40 -92 -65 -153 -25 -60 -52
-123 -59 -140 -12 -27 -49 -114 -81 -190 -7 -16 -31 -75 -55 -130 -23 -55 -46
-109 -50 -121 -6 -16 -19 -22 -54 -26 -63 -7 -116 -38 -151 -87 -27 -38 -30
-51 -30 -116 0 -65 3 -78 30 -116 17 -23 50 -53 75 -67 38 -20 55 -23 108 -19
100 8 173 75 188 174 7 48 -10 126 -32 144 -18 14 -18 33 0 72 40 93 72 168
92 217 77 191 153 375 202 488 34 80 37 83 66 80 26 -3 42 -22 144 -173 l114
-169 -21 -44 c-33 -67 -36 -118 -12 -181 l20 -54 -110 -151 c-61 -83 -118
-161 -127 -174 -120 -165 -447 -609 -484 -656 -59 -76 -49 -76 -104 -5 -59 75
-185 240 -384 504 -79 105 -171 225 -204 269 -34 43 -70 91 -81 107 -11 16
-23 29 -27 29 -5 0 -8 -113 -8 -251 l0 -252 295 -393 295 -392 0 -401 0 -401
-345 0 -346 0 67 78 c36 42 89 104 118 137 28 32 83 98 121 145 68 83 104 125
154 179 68 75 72 85 69 163 -3 67 -5 73 -24 73 -15 0 -52 -34 -115 -106 -106
-119 -317 -360 -429 -488 -41 -47 -81 -85 -90 -84 -8 1 -36 5 -63 9 -115 16
-227 -80 -227 -196 0 -56 44 -131 93 -160 l34 -20 1 -119 2 -119 -28 -10 c-68
-25 -142 -137 -142 -217 1 -89 68 -182 157 -215 66 -25 113 -25 176 -3 133 48
194 196 131 321 -24 48 -77 101 -116 115 -16 6 -18 21 -18 132 0 93 3 125 13
125 18 0 61 40 82 78 l19 32 353 0 353 0 0 -321 0 -320 23 6 c56 18 258 120
364 186 119 74 249 167 312 223 297 266 489 526 626 846 20 47 40 94 46 105
22 48 83 261 113 400 25 115 46 323 46 460 0 104 -26 363 -44 440 -7 33 -17
80 -20 105 -4 25 -10 51 -15 58 -5 9 -50 -43 -146 -172 l-139 -186 -1 -238
c-1 -217 -3 -247 -28 -357 -47 -212 -85 -323 -167 -490 -55 -113 -151 -271
-197 -326 -12 -13 -54 -64 -94 -113 -66 -79 -311 -306 -331 -306 -4 0 -8 212
-8 471 l0 470 62 87 c33 48 83 116 109 152 58 79 198 274 279 390 33 47 78
110 100 140 22 30 59 82 82 115 23 33 46 65 51 70 4 6 31 42 58 80 146 208
181 254 219 290 61 58 84 108 84 180 0 93 -40 157 -129 204 -32 18 -55 21
-118 20 l-78 -2 -33 49 c-18 27 -69 103 -113 169 l-81 120 21 34 c15 25 21 51
21 97 0 53 -5 69 -29 104 -60 86 -169 115 -262 69z m626 -805 c46 -59 10 -154
-59 -154 -66 0 -112 65 -90 126 15 40 37 54 86 54 34 0 47 -5 63 -26z"/>
<path d="M750 1130 c0 -15 300 -313 360 -356 132 -97 180 -130 211 -149 257
-148 434 -226 669 -293 72 -21 243 -61 247 -58 1 1 -12 31 -29 66 -27 56 -32
76 -31 140 0 54 6 88 21 120 24 52 27 50 -78 75 -298 70 -585 211 -823 402
l-78 63 -234 0 c-143 0 -235 -4 -235 -10z"/>
<path d="M3270 749 c-83 -31 -174 -58 -275 -80 -55 -12 -102 -23 -104 -25 -2
-2 1 -10 8 -18 6 -7 18 -43 25 -78 16 -79 7 -150 -28 -222 -14 -28 -24 -52
-22 -53 9 -10 422 81 439 96 4 4 6 95 5 202 l-3 195 -45 -17z"/>
</g>
</svg>
